<svg xmlns="http://www.w3.org/2000/svg" version="1.1" xmlns:xlink="http://www.w3.org/1999/xlink" width="128" height="50"><svg width="128" height="50" viewBox="0 0 128 50" fill="none" xmlns="http://www.w3.org/2000/svg">
<g clip-path="url(#clip0_4100_3350)">
<path d="M106.23 30.299C81.1423 46.2025 30.5743 24.1559 12.0473 36.1647C-8.5119 49.4907 35.6433 53.9508 63.5505 43.4336C67.9077 41.7916 68.2133 39.9723 65.7514 39.5008C65.2165 39.3984 62.114 38.7798 60.7952 39.626C58.6471 41.0042 63.4199 42.4429 60.1594 43.4336C39.994 49.5594 14.5204 48.376 20.525 38.9339C27.3166 28.2541 85.381 47.0678 107.643 30.977" fill="#E62E2D"></path>
<path d="M3.05471 22.386C2.9829 23.544 3.30605 24.5575 4.02414 25.426C7.495 20.826 9.53025 18.0353 10.1288 17.054C10.4163 16.5876 10.5599 16.1937 10.5599 15.8717C10.5599 15.2927 10.1765 15.0032 9.41067 15.0032C9.24302 15.0032 9.05162 15.0193 8.83619 15.0516L8.62077 15.1239C7.39973 15.526 6.21488 16.4349 5.06565 17.8501C3.82058 19.3785 3.14999 20.8902 3.05471 22.386ZM8.76438 27.5972C9.2187 27.5972 9.70978 27.5249 10.2365 27.3801C10.7629 27.2354 11.0985 27.163 11.2421 27.163C11.6967 27.163 11.9243 27.3162 11.9243 27.6216C11.9243 27.8308 11.7566 27.9995 11.4216 28.1282C10.6317 28.4338 9.78159 28.5865 8.8721 28.5865H8.44124H8.01011C7.19618 29.5596 6.38083 30.9039 6.38083 30.9039L0 30.8708C0 30.8708 1.10315 29.4069 1.79777 28.4417C2.06098 28.0883 2.52774 27.4689 3.19833 26.584C1.92923 25.3777 1.31857 23.9143 1.36692 22.1929C1.4147 20.5204 2.15767 18.849 3.62919 17.1988C6.30874 14.1935 14.3163 8.84744 17.494 9.4123C19.7093 9.80612 18.533 12.3703 17.494 14.0983C17.1802 14.6207 16.3069 16.3583 15.623 17.4399C15.4002 17.7922 14.737 18.9923 13.3966 20.9866C16.9633 17.9791 19.968 16.1937 22.4098 15.6306C23.2235 15.4375 23.9181 15.3411 24.4926 15.3411C25.8332 15.3411 26.5035 15.8157 26.5035 16.7645C26.5035 17.3277 26.2756 17.987 25.8213 18.743C25.2703 19.6759 24.4685 20.8418 23.4154 22.2412C27.4848 19.0407 30.8723 17.4399 33.5778 17.4399C35.1814 17.4399 35.9837 17.9067 35.9837 18.8394C35.9837 19.322 35.7558 19.925 35.3015 20.649C33.8651 22.4666 32.2132 24.6299 30.3458 27.139C30.0821 27.5574 27.6346 30.9152 27.6346 30.9152L21.7977 30.8818C21.7977 30.8818 26.8145 24.099 27.6527 22.6515C27.94 22.153 28.0836 21.7671 28.0836 21.4932C28.0836 21.2681 27.9634 21.1556 27.7245 21.1556C27.389 21.1556 26.8863 21.3484 26.2163 21.7346C24.5163 22.7159 22.6849 24.123 20.7223 25.9567L19.5013 27.5972C18.7589 28.5949 18.2655 29.1881 18.1007 29.4069C17.7662 29.8516 16.9747 30.8818 16.9747 30.8818L10.9772 30.8985C10.9772 30.8985 11.5169 30.203 11.7806 29.8171C12.8097 28.289 14.869 25.579 17.9571 21.6863C18.6752 20.7858 19.0345 20.1022 19.0345 19.6355C19.0345 19.346 18.8909 19.2012 18.6036 19.2012C17.8369 19.2012 16.4607 20.0299 14.4738 21.6863C13.0611 22.8607 11.5652 24.2519 9.98514 25.8603C9.6979 26.2945 9.29051 26.8735 8.76438 27.5972Z" fill="#E62E2D"></path>
<path d="M44.9161 23.8014C46.1204 22.4817 50.3713 19.5146 54.141 19.4242C55.7423 19.3857 58.592 19.0781 58.4538 21.7967C58.4258 22.3474 58.1694 22.8741 57.6008 23.3754C56.9082 23.977 56.1542 24.2775 55.3383 24.2775C54.1514 24.2775 53.558 23.9018 53.558 23.1498C53.558 22.8993 53.6564 22.6573 53.8546 22.4232C54.1266 22.089 54.5716 21.8886 55.1899 21.8216C54.9176 21.6715 54.6208 21.5963 54.2999 21.5963C53.1374 21.5963 51.7778 22.6154 50.22 24.6535C49.2305 25.9565 48.7364 26.9757 48.7364 27.7108C48.7364 28.4962 49.2305 28.8973 50.22 28.9137C50.9118 28.9304 51.7899 28.73 52.8532 28.3121C53.7927 27.9282 54.6208 27.477 55.3383 26.959C56.2777 26.291 57.922 27.0342 56.1912 28.1368C53.0508 30.1415 50.1457 31.144 47.4752 31.144C46.6593 31.144 45.9296 31.0185 45.287 30.768C44.4711 30.4508 43.8949 29.9233 43.3583 29.2894C42.1534 27.8663 43.1898 25.6933 44.9161 23.8014Z" fill="#E62E2D"></path>
<path d="M69.3784 13.2704L74.9365 13.3473L67.7299 23.0588C67.7299 23.0588 71.3565 20.578 72.6991 20.0202C74.2883 19.3601 75.9254 18.9241 76.9381 19.1936C77.8663 19.4401 78.5264 19.8562 77.6449 21.7894C77.5389 22.0218 76.1375 23.9434 74.1025 26.6504C73.9425 26.8636 73.8512 27.0448 73.8512 27.2054C73.8512 27.4629 74.6052 27.5916 74.6052 27.5916L72.1221 30.9623H65.8693C65.8693 30.9623 69.8341 25.5572 70.1748 25.1322C70.5208 24.7002 71.2522 23.6525 70.9661 23.5702C70.6198 23.4704 68.7867 24.3986 68.4434 24.6005C68.0476 24.8331 67.0273 25.3677 65.3766 26.8271C63.5378 28.453 62.0188 30.9623 62.0188 30.9623H56.4019L69.3784 13.2704Z" fill="#E62E2D"></path>
<path d="M102.891 13.2801H108.049C108.049 13.2801 100.782 23.0433 98.3887 26.3728C98.125 26.8231 97.9938 27.137 97.9938 27.3137C97.9938 27.5712 98.499 27.7114 98.9539 27.647C99.3132 27.5986 96.5797 30.8818 96.5797 30.8818H89.8689L102.891 13.2801Z" fill="#E62E2D"></path>
<path d="M117.768 14.2148C118.199 14.4885 118.414 14.8747 118.414 15.3728C118.414 16.2094 117.911 17.0858 116.906 18.0026C116.188 18.6461 115.254 19.1931 114.105 19.6435C113.123 20.0294 112.345 20.2225 111.771 20.2225C111.196 20.2225 110.909 20.0534 110.909 19.7159C110.909 19.5711 110.993 19.4586 111.161 19.378C111.471 19.2655 112.058 19.0243 112.92 18.6543C113.351 18.4612 113.566 18.2361 113.566 17.9786C113.566 17.7855 113.393 17.5124 113.046 17.1581C112.698 16.8048 112.525 16.4429 112.525 16.0725C112.525 15.4935 112.812 14.955 113.387 14.456C113.961 13.9578 114.752 13.7082 115.757 13.7082C116.571 13.7082 117.241 13.877 117.768 14.2148Z" fill="#E62E2D"></path>
<path d="M119.12 27.7072C117.516 27.5786 116.606 27.5625 116.391 27.6589C116.007 27.82 115.816 28.0128 115.816 28.2379C115.816 28.5277 116.043 28.753 116.498 28.9136C116.665 28.9619 116.833 28.9859 117.001 28.9859C117.791 28.9859 118.497 28.5599 119.12 27.7072ZM106.212 30.2989C106.212 30.2989 110.876 26.6861 114.655 23.4049C117.446 20.9818 119.802 20.0743 121.742 19.4591C124.582 18.5586 126.149 18.91 126.913 19.3663C127.168 19.5184 126.541 21.0315 126.277 20.9241C125.303 20.5274 122.754 20.962 123.027 21.3858C124.393 23.501 125.14 25.037 124.876 26.5863C125.354 26.4415 125.81 26.2086 126.24 25.8866C126.528 25.6615 126.863 25.549 127.246 25.549C127.749 25.549 128 25.7099 128 26.0313C128 26.1761 127.785 26.4175 127.354 26.7553C126.611 27.3504 125.653 27.7123 124.481 27.841C121.049 33.3855 108.049 32.2315 113.313 28.0779C116.316 25.7079 118.082 26.1164 119.741 26.5382C122.003 22.9721 120.201 21.9048 120.201 21.9048C120.201 21.9048 117.501 23.1032 116.669 23.7509C114.647 25.3228 114.43 25.4718 107.36 31.1642" fill="#E62E2D"></path>
<path d="M39.4214 19.655H44.6968C44.6968 19.655 42.0461 23.0433 39.6527 26.3728C39.3889 26.8231 39.2574 27.137 39.2574 27.3137C39.2574 27.5712 39.7629 27.7114 40.2178 27.647C40.5771 27.5989 37.8436 30.8818 37.8436 30.8818H31.1328L39.4214 19.655Z" fill="#E62E2D"></path>
<path d="M47.5204 16.2864C46.3663 17.5444 44.462 17.9716 43.2667 17.2405C42.0717 16.5094 42.0383 14.8971 43.1923 13.639C44.3464 12.3812 46.2507 11.9541 47.446 12.6849C48.6411 13.416 48.6744 15.0283 47.5204 16.2864Z" fill="#E62E2D"></path>
<path d="M83.5288 25.3027C83.6936 25.4949 86.3485 24.5634 87.5865 23.5888C90.0996 21.6104 88.558 21.3328 88.2973 21.4527C86.9909 22.0526 83.3142 25.0525 83.5288 25.3027ZM82.4988 27.5092C81.4251 27.8109 82.8732 28.9002 83.9952 28.9169C84.693 28.9335 85.5787 28.7325 86.6513 28.3135C87.6239 27.9115 88.4714 27.4592 89.1949 26.9565C90.1426 26.2698 91.8007 27.0487 90.0555 28.1377C86.8382 30.1317 83.8952 31.1282 81.2269 31.1282C80.4039 31.1282 79.6805 31.0109 79.0574 30.7765C78.2092 30.4585 76.982 29.5883 76.8519 28.8219C76.2161 25.072 81.5506 20.5432 87.3793 19.5624C88.4053 19.3897 92.6197 19.2404 92.2191 21.6393C92.0435 22.6907 91.4241 23.5849 89.7145 24.5586C87.4616 25.8424 85.4049 26.6933 82.4988 27.5092Z" fill="#E62E2D"></path>
<path d="M50.0949 5.92992C50.7584 5.92992 51.0903 5.60367 51.0903 4.95117C51.0903 4.63312 51.0069 4.39196 50.8396 4.22743C50.6722 4.06289 50.4296 3.98062 50.1116 3.98062H49.3754V5.92992H50.0949ZM50.0446 3.21927C50.318 3.21927 50.5286 3.14548 50.6765 2.99762C50.824 2.84977 50.8981 2.63349 50.8981 2.34908C50.8981 2.07033 50.8226 1.86395 50.6722 1.72994C50.5215 1.59622 50.2874 1.52921 49.9694 1.52921H49.3754V3.21927H50.0446ZM48.4634 6.71643V0.742706H50.0613C50.608 0.742706 51.0375 0.876429 51.3499 1.14388C51.6623 1.41104 51.8183 1.77602 51.8183 2.23826C51.8183 2.52238 51.7431 2.77569 51.5924 2.99847C51.4418 3.22097 51.2272 3.39936 50.9481 3.5328C51.2716 3.63373 51.5297 3.81636 51.7222 4.08183C51.9145 4.3473 52.0109 4.65008 52.0109 4.99075C52.0109 5.5214 51.8449 5.94151 51.513 6.25165C51.1811 6.5615 50.7307 6.71643 50.1616 6.71643H48.4634Z" fill="#E62E2D"></path>
<path d="M53.4666 0.742826H54.4204V6.71655H53.4666V0.742826Z" fill="#E62E2D"></path>
<path d="M57.2733 3.96382C56.8215 3.81314 56.4896 3.6028 56.2776 3.33224C56.0656 3.06169 55.9596 2.71452 55.9596 2.29073C55.9596 1.78326 56.1241 1.37304 56.4532 1.06064C56.7825 0.748247 57.2173 0.592189 57.7585 0.592189C58.2716 0.592189 58.6705 0.723368 58.9549 0.985443C59.2393 1.24752 59.4234 1.64925 59.507 2.19008L58.6117 2.33229C58.5337 1.98681 58.4291 1.74113 58.2982 1.5961C58.167 1.45107 57.9815 1.37841 57.7418 1.37841C57.4797 1.37841 57.2787 1.4539 57.1393 1.60458C56.9999 1.75499 56.9301 1.96985 56.9301 2.24889C56.9301 2.48863 56.9804 2.67409 57.0808 2.80498C57.1812 2.93616 57.3539 3.04359 57.5996 3.12728L58.2521 3.34497C58.5755 3.4507 58.8336 3.58329 59.0259 3.74218C59.2187 3.90106 59.3592 4.09218 59.4485 4.31524C59.5379 4.53858 59.5825 4.80885 59.5825 5.12691C59.5825 5.65671 59.4177 6.07937 59.0889 6.39431C58.7595 6.70953 58.3219 6.867 57.7751 6.867C56.5872 6.867 55.9514 6.24532 55.8677 5.00138H56.8215C56.8549 5.37513 56.9482 5.64851 57.1017 5.82125C57.2552 5.99427 57.4825 6.0805 57.7836 6.0805C58.0457 6.0805 58.2492 5.99992 58.3943 5.83821C58.5393 5.67622 58.6117 5.44779 58.6117 5.15178C58.6117 4.88971 58.5546 4.6822 58.4404 4.52869C58.3259 4.37517 58.1376 4.25417 57.8755 4.16455L57.2733 3.96382Z" fill="#E62E2D"></path>
<path d="M61.9418 6.71649V1.5878H60.5361V0.742767H64.301V1.5878H62.8954V6.71649H61.9418Z" fill="#E62E2D"></path>
<path d="M67.0203 3.52042C67.4105 3.52042 67.6952 3.44098 67.8736 3.28181C68.052 3.12293 68.1413 2.87075 68.1413 2.52471C68.1413 2.19591 68.0494 1.95165 67.8651 1.79276C67.6813 1.63388 67.3995 1.55443 67.0203 1.55443H66.51V3.52042H67.0203ZM68.3171 6.71649L67.3718 4.31513C67.2934 4.32078 67.2296 4.32502 67.1792 4.32785C67.1289 4.33068 67.0817 4.33209 67.037 4.33209H66.51V6.71649H65.5811V0.742766H67.104C67.7232 0.742766 68.2055 0.896279 68.5515 1.20274C68.897 1.50977 69.07 1.93921 69.07 2.49135C69.07 2.83145 68.9948 3.13537 68.8441 3.40338C68.6934 3.67111 68.4814 3.88314 68.2083 4.0392L69.3211 6.71649H68.3171Z" fill="#E62E2D"></path>
<path d="M72.6509 6.02198C73.0693 6.02198 73.3772 5.8351 73.5754 5.46164C73.7733 5.08789 73.8725 4.50776 73.8725 3.72126C73.8725 2.9291 73.7764 2.35066 73.5836 1.98512C73.3913 1.61985 73.086 1.43722 72.6676 1.43722C72.2494 1.43722 71.941 1.62409 71.7431 1.99756C71.5452 2.37159 71.446 2.95143 71.446 3.73794C71.446 4.5301 71.5424 5.10881 71.7346 5.47408C71.9272 5.83934 72.2325 6.02198 72.6509 6.02198ZM72.6342 6.867C71.9147 6.867 71.3719 6.60493 71.0069 6.0805C70.6417 5.55635 70.4587 4.77832 70.4587 3.74642C70.4587 2.71452 70.647 1.93084 71.0236 1.39538C71.4002 0.859919 71.9534 0.592189 72.6845 0.592189C73.404 0.592189 73.9463 0.854547 74.3116 1.37841C74.6768 1.90285 74.8597 2.68087 74.8597 3.71278C74.8597 4.74468 74.6714 5.52836 74.2949 6.06382C73.9183 6.59928 73.3647 6.867 72.6342 6.867Z" fill="#E62E2D"></path>
<path d="M77.1771 6.71649V1.5878H75.7715V0.742767H79.5364V1.5878H78.1307V6.71649H77.1771Z" fill="#E62E2D"></path>
</g>
<defs>
<clipPath id="SvgjsClipPath1024">
<rect width="128" height="48.7704" fill="white" transform="translate(0 0.5)"></rect>
</clipPath>
</defs>
</svg><style>@media (prefers-color-scheme: light) { :root { filter: none; } }
@media (prefers-color-scheme: dark) { :root { filter: none; } }
</style></svg>